<?xml version="1.0" encoding="utf-8" ?>
<svg xmlns="http://www.w3.org/2000/svg" xmlns:xlink="http://www.w3.org/1999/xlink" width="26" height="26">
	<path fill="#FAB33C" transform="scale(0.0253906 0.0253906)" d="M418.108 949.683C396.451 945.68 375.514 938.909 354.989 930.997C296.569 908.476 245.128 875.596 199.771 832.442C117.443 754.11 68.867 639.748 66.0881 526.5C65.0979 486.149 68.7283 445.536 78.1597 406.25C96.3952 330.292 135.727 259.749 189.554 203.286C213.275 178.403 239.589 155.892 268.342 137.005C338.8 90.7246 421.166 66.6712 505.238 64.7313C594.661 62.6678 686.205 91.1242 760.024 141.216C770.613 148.402 780.858 156.588 790.801 164.644C800.297 172.339 809.714 179.967 818.539 188.442C842.321 211.28 864.592 236.8 883.122 264.1C914.022 309.626 936.27 361.597 948.798 415.102C955.233 442.583 959.484 470.679 960.095 498.926C959.947 500.566 960.563 503.577 959.616 504.815L852.118 399.94L851.269 399.031C845.769 395.095 840.963 389.597 836.164 384.819L811.175 359.823C805.558 354.158 798.66 345.25 791.006 342.645C785.514 338.473 780.047 334.226 773.314 332.268C768.323 330.817 763.053 330.853 757.895 330.719L735.662 330.474L690.805 330.443L646.902 330.701L627.603 330.48L609.018 330.513L560.132 330.684C552.788 330.711 544.639 330.053 537.389 330.867C535.484 330.524 532.911 330.835 530.948 330.831L515.635 330.846L440.84 331.008L422.432 331.059C420.171 331.059 416.926 331.483 414.75 331.017C414.158 330.891 413.961 330.691 413.527 330.37C411.194 329.793 408.652 330.005 406.26 330.005C402.659 330.004 399.015 329.869 395.438 330.342L394.529 330.554C391.299 331.248 387.441 330.997 384.122 331.003L367.373 331.016L292.089 331.014L271.75 330.99C265.904 330.938 260.43 330.525 254.661 331.881C244.663 334.231 234.507 340.082 228.575 348.679C225.112 353.696 222.769 359.647 222.131 365.721C220.96 376.874 221.883 388.782 221.91 400.018L221.99 466.98L221.98 629.907L221.934 714.383C221.304 731.97 218.828 756.458 231.78 770.615C237.324 776.673 243.813 780.33 250.931 784.161C255.548 791.21 262.742 797.217 268.714 803.136L304.587 838.122L418.108 949.683Z"/>
	<path fill="#FCEAC5" transform="scale(0.0253906 0.0253906)" d="M297.619 226.768L296.427 226.091C289.934 222.321 284.92 216.35 283.05 208.98C281.275 201.983 282.113 194.906 285.992 188.742C289.676 182.889 296.327 177.886 303.195 176.475C310.263 175.024 318.256 176.259 324.307 180.321C332.001 185.485 334.972 192.89 336.708 201.712L336.578 202.124C335.741 204.845 335.568 207.697 334.75 210.438C332.821 216.898 328.312 222.331 322.384 225.516C314.147 229.942 306.252 229.424 297.619 226.768Z"/>
	<path fill="#FEC96E" transform="scale(0.0253906 0.0253906)" d="M336.708 201.712C343.251 197.738 349.801 193.676 356.639 190.223C428.04 154.177 516.295 144.684 593.943 163.682C688.642 186.851 769.446 247.235 819.75 330.608C829.585 346.907 837.961 364.131 845.034 381.795C847.293 387.436 849.813 393.122 851.269 399.031C845.769 395.095 840.963 389.597 836.164 384.819L811.175 359.823C805.558 354.158 798.66 345.25 791.006 342.645C785.514 338.473 780.047 334.226 773.314 332.268C768.323 330.817 763.053 330.853 757.895 330.719L735.662 330.474L690.805 330.443L646.902 330.701L627.603 330.48L609.018 330.513L560.132 330.684C552.788 330.711 544.639 330.053 537.389 330.867C535.484 330.524 532.911 330.835 530.948 330.831L515.635 330.846L440.84 331.008L422.432 331.059C420.171 331.059 416.926 331.483 414.75 331.017C414.158 330.891 413.961 330.691 413.527 330.37C411.194 329.793 408.652 330.005 406.26 330.005C402.659 330.004 399.015 329.869 395.438 330.342L394.529 330.554C391.299 331.248 387.441 330.997 384.122 331.003L367.373 331.016L292.089 331.014L271.75 330.99C265.904 330.938 260.43 330.525 254.661 331.881C244.663 334.231 234.507 340.082 228.575 348.679C225.112 353.696 222.769 359.647 222.131 365.721C220.96 376.874 221.883 388.782 221.91 400.018L221.99 466.98L221.98 629.907L221.934 714.383C220.597 713.556 219.626 712.591 218.645 711.36C216.068 708.123 213.983 704.373 211.71 700.918C203.995 689.189 197.132 676.796 191.142 664.099C168.289 615.66 156.356 563.081 156.559 509.461C156.63 490.906 158.355 472.78 160.668 454.406C169.413 384.956 205.138 316.186 253.1 265.75C263.466 254.85 275.096 244.127 286.829 234.706L297.619 226.768C306.252 229.424 314.147 229.942 322.384 225.516C328.312 222.331 332.821 216.898 334.75 210.438C335.568 207.697 335.741 204.845 336.578 202.124L336.708 201.712Z"/>
	<path fill="#0A255A" transform="scale(0.0253906 0.0253906)" d="M395.438 330.342L395.289 284.304C395.524 274.176 398.095 264.469 405.869 257.392C411.754 252.034 419.955 249.427 427.846 249.858C425.783 254.343 427.134 260.985 426.918 265.894C422.182 267.812 417.198 270.211 415.114 275.25C412.315 282.019 413.513 291.85 413.509 299.114L413.527 330.37C411.194 329.793 408.652 330.005 406.26 330.005C402.659 330.004 399.015 329.869 395.438 330.342Z"/>
	<path fill="#FAB33C" transform="scale(0.0253906 0.0253906)" d="M623.805 264.823C625.824 265.619 627.372 266.774 628.953 268.231L667.62 306.888L681.801 320.945C684.903 323.983 688.341 326.822 690.805 330.443L646.902 330.701L627.603 330.48L627.735 295.617C627.775 288.773 628.475 281.531 627.331 274.762C626.733 271.219 625.298 268.053 623.805 264.823Z"/>
	<path fill="#1C507C" transform="scale(0.0253906 0.0253906)" d="M427.846 249.858C429.344 247.193 430.948 244.352 433.102 242.16C436.33 238.876 440.37 236.543 444.937 235.765C450.299 234.85 455.866 235.431 461.278 235.483L486.126 235.516L574.771 235.306C581.18 235.347 587.422 238.856 591.448 243.75C592.847 245.451 593.963 247.637 595.563 249.124L595.976 249.464C597.971 254.631 597.157 259.678 597.939 265.01C596.969 265.823 596.559 265.896 596.201 267.15C589.704 267.183 583.331 265.959 576.76 265.981C571.441 266 566.276 266.85 561 267.065L505.68 266.839L449.973 265.99L435.75 266.087C433.046 266.169 430.271 265.883 427.62 266.496L426.918 265.894C427.134 260.985 425.783 254.343 427.846 249.858Z"/>
	<path fill="#FAB33C" transform="scale(0.0253906 0.0253906)" d="M595.976 249.464C606.134 250.279 613.703 252.236 620.547 260.259L623.805 264.823C625.298 268.053 626.733 271.219 627.331 274.762C628.475 281.531 627.775 288.773 627.735 295.617L627.603 330.48L609.018 330.513L560.132 330.684C552.788 330.711 544.639 330.053 537.389 330.867C535.484 330.524 532.911 330.835 530.948 330.831L515.635 330.846L440.84 331.008L422.432 331.059C420.171 331.059 416.926 331.483 414.75 331.017C414.158 330.891 413.961 330.691 413.527 330.37L413.509 299.114C413.513 291.85 412.315 282.019 415.114 275.25C417.198 270.211 422.182 267.812 426.918 265.894L427.62 266.496C430.271 265.883 433.046 266.169 435.75 266.087L449.973 265.99L505.68 266.839L561 267.065C566.276 266.85 571.441 266 576.76 265.981C583.331 265.959 589.704 267.183 596.201 267.15C596.559 265.896 596.969 265.823 597.939 265.01C597.157 259.678 597.971 254.631 595.976 249.464Z"/>
	<path fill="#0A255A" transform="scale(0.0253906 0.0253906)" d="M595.976 249.464C606.134 250.279 613.703 252.236 620.547 260.259L623.805 264.823C625.298 268.053 626.733 271.219 627.331 274.762C628.475 281.531 627.775 288.773 627.735 295.617L627.603 330.48L609.018 330.513L609.06 299.806C609.111 292.448 610.272 284.285 608.287 277.116C606.621 271.098 603.159 268.041 597.939 265.01C597.157 259.678 597.971 254.631 595.976 249.464Z"/>
	<path fill="#164073" transform="scale(0.0253906 0.0253906)" d="M427.62 266.496C430.271 265.883 433.046 266.169 435.75 266.087L449.973 265.99L505.68 266.839L561 267.065C566.276 266.85 571.441 266 576.76 265.981C583.331 265.959 589.704 267.183 596.201 267.15L595.873 268.258C593.752 274.127 588.879 279.5 583.081 281.93L582.28 282.25C579.998 283.176 577.998 283.472 575.546 283.592L551.579 283.729L507.403 283.739L462.752 283.623C456.954 283.571 448.94 284.484 443.488 282.779L442.75 282.533L438.794 281.124C432.721 278.197 429.854 272.505 427.62 266.496Z"/>
	<defs>
		<linearGradient id="gradient_0" gradientUnits="userSpaceOnUse" x1="610.02625" y1="838.63501" x2="414.03293" y2="276.60077">
			<stop offset="0" stop-color="#031E51"/>
			<stop offset="1" stop-color="#265C8E"/>
		</linearGradient>
	</defs>
	<path fill="url(#gradient_0)" transform="scale(0.0253906 0.0253906)" d="M395.438 330.342C399.015 329.869 402.659 330.004 406.26 330.005C408.652 330.005 411.194 329.793 413.527 330.37C413.961 330.691 414.158 330.891 414.75 331.017C416.926 331.483 420.171 331.059 422.432 331.059L440.84 331.008L515.635 330.846L530.948 330.831C532.911 330.835 535.484 330.524 537.389 330.867C544.639 330.053 552.788 330.711 560.132 330.684L609.018 330.513L627.603 330.48L646.902 330.701L690.805 330.443L735.662 330.474L757.895 330.719C763.053 330.853 768.323 330.817 773.314 332.268C780.047 334.226 785.514 338.473 791.006 342.645C798.66 345.25 805.558 354.158 811.175 359.823L836.164 384.819C840.963 389.597 845.769 395.095 851.269 399.031L852.118 399.94L959.616 504.815C960.563 503.577 959.947 500.566 960.095 498.926C961.021 507.042 960.541 515.692 960.155 523.843L958.329 552.579C955.797 580.368 951.116 608.584 943.658 635.505C928.29 690.98 901.318 743.603 865.465 788.657C844.855 814.557 821.567 839.563 795.5 860.066C784.27 868.899 772.382 876.75 760.496 884.662C732.279 903.443 702.262 919.807 670.524 931.812C635.204 945.172 597.952 953.071 560.497 957.284C524.942 961.283 488.508 960.455 453.068 955.683C441.299 954.099 429.664 952.463 418.108 949.683L304.587 838.122L268.714 803.136C262.742 797.217 255.548 791.21 250.931 784.161C243.813 780.33 237.324 776.673 231.78 770.615C218.828 756.458 221.304 731.97 221.934 714.383L221.98 629.907L221.99 466.98L221.91 400.018C221.883 388.782 220.96 376.874 222.131 365.721C222.769 359.647 225.112 353.696 228.575 348.679C234.507 340.082 244.663 334.231 254.661 331.881C260.43 330.525 265.904 330.938 271.75 330.99L292.089 331.014L367.373 331.016L384.122 331.003C387.441 330.997 391.299 331.248 394.529 330.554L395.438 330.342Z"/>
	<path fill="#2F799F" transform="scale(0.0253906 0.0253906)" d="M627.603 330.48L646.902 330.701L646.285 330.839C643.162 331.481 638.821 330.927 635.59 330.671C638.899 336.329 644.962 339.188 648.195 344.642L592.272 344.49C591.456 343.762 590.866 343.272 590.441 342.25L591.954 340.25C591.496 339.279 591.749 339.546 591.015 338.902L590.523 338.5C590.939 337.705 590.824 338.05 591.017 337.209C591.257 336.157 591.355 335.169 592.004 334.271L592.369 333.878L592.25 333.075C589.882 332.422 587.69 332.047 585.25 331.802C583.482 330.108 543.474 331.226 537.389 330.867C544.639 330.053 552.788 330.711 560.132 330.684L609.018 330.513L627.603 330.48Z"/>
	<path fill="#FEC96E" transform="scale(0.0253906 0.0253906)" d="M708.516 747.002L787.29 747.302C784.475 756.115 779.73 764.351 771.25 768.815C768.792 770.11 766.181 770.883 763.5 771.561L762.593 771.801C757.511 773.065 751.661 772.514 746.44 772.515L718.386 772.479C713.494 772.458 708.575 772.118 703.693 772.459C703.913 770.772 703.838 769.024 703.842 767.322L708.516 747.002Z"/>
	<path fill="#FEC96E" transform="scale(0.0253906 0.0253906)" d="M235.471 746.808L314.626 746.5L314.86 746.651C317.195 755.066 319.051 763.349 319.137 772.11L318.9 772.454L284.756 772.062C276.99 772.113 268.535 773.432 260.793 772.282C256.644 771.667 252.823 770.256 249.235 768.113C241.185 763.304 237.679 755.5 235.471 746.808Z"/>
	<path fill="#FEDBA8" transform="scale(0.0253906 0.0253906)" d="M708.516 747.002C712.57 735.687 718.675 725.957 727.133 717.383C743.064 701.232 765.076 691.228 787.874 690.999L788.141 721.839C788.209 730.497 788.783 738.704 787.29 747.302L708.516 747.002Z"/>
	<path fill="#FCEAC5" transform="scale(0.0253906 0.0253906)" d="M235.459 689.869C258.622 690.511 280.012 699.174 296.005 716.201C304.129 724.851 310.338 735.483 314.626 746.5L235.471 746.808L235.459 689.869Z"/>
	<path fill="#FCEAC5" transform="scale(0.0253906 0.0253906)" d="M262.505 345.008L321.199 345.076C320.053 360.118 314.324 374.602 305.975 387.079C293.289 404.032 278.143 415.92 256.695 419.148C249.423 420.243 242.174 419.305 235.003 418.113L234.584 381.594C234.326 371 235.467 360.619 243.189 352.666C248.559 347.135 254.934 345.058 262.505 345.008Z"/>
	<path fill="#FEC96E" transform="scale(0.0253906 0.0253906)" d="M235.003 418.113L234.584 381.594C234.326 371 235.467 360.619 243.189 352.666C248.559 347.135 254.934 345.058 262.505 345.008L262.065 345.28C259.448 346.879 256.585 347.867 253.919 349.362C247.423 353.004 241.521 359.565 239.685 366.9C238.579 371.317 238.054 376.927 240.588 380.977C242.008 383.245 244.089 384.933 246.5 386.018L247.068 386.285C251.621 388.28 259.147 387.053 264.154 386.998L290.978 386.954C295.922 386.944 301.077 386.442 305.975 387.079C293.289 404.032 278.143 415.92 256.695 419.148C249.423 420.243 242.174 419.305 235.003 418.113Z"/>
	<path fill="#FEDBA8" transform="scale(0.0253906 0.0253906)" d="M700.854 344.991L738.604 344.959C747.914 344.937 759.487 343.465 768.455 346.106C772.483 347.293 776.295 350.03 779.237 352.955C786.197 359.876 788.541 367.533 788.506 377.25L788.095 422.132L776.126 421.644C751.978 419.025 732.237 405.129 717.385 386.646L715.988 385.383C711.042 378.603 706.998 371.436 704.77 363.316L704.587 363.073C703.221 362.996 702.022 363 700.664 363.158C701.307 359.785 700.38 355.656 701.78 352.514L700.854 344.991Z"/>
	<path fill="#EE5E58" transform="scale(0.0253906 0.0253906)" d="M701.78 352.514L704.587 363.073C703.221 362.996 702.022 363 700.664 363.158C701.307 359.785 700.38 355.656 701.78 352.514Z"/>
	<path fill="#FCEAC5" transform="scale(0.0253906 0.0253906)" d="M704.77 363.316C705.526 362.904 705.717 362.621 706.593 362.723C712.367 363.392 718.421 363.03 724.234 363.013L750.128 362.838C755.741 362.703 762.343 361.5 767.789 363.044C770.543 363.825 772.889 365.662 774.618 367.916C776.538 370.419 776.885 373.193 776.359 376.25C775.812 379.429 773.287 382.686 770.61 384.371C764.061 388.493 751.866 386.484 744.364 386.465L717.385 386.646L715.988 385.383C711.042 378.603 706.998 371.436 704.77 363.316Z"/>
	<path fill="#2F799F" transform="scale(0.0253906 0.0253906)" d="M787.511 495.923C788.417 497.993 788.128 500.225 788.117 502.446L788.068 512.672L788.607 538.429L788.158 538.871L787.664 641.518L787.518 674.363C787.511 679.719 787.004 685.741 787.874 690.999C765.076 691.228 743.064 701.232 727.133 717.383C718.675 725.957 712.57 735.687 708.516 747.002C706.446 746.477 704.252 746.424 702.128 746.259C701.429 742.033 701.954 736.963 701.956 732.655L701.964 701.27L701.875 587.339L701.52 587.414C700.898 579.257 701.029 571.088 701.038 562.914C701.041 559.555 701.815 553.643 700.475 550.641L701.032 550.4C726.144 541.414 750.639 529.95 771.069 512.471C776.915 507.47 782.281 501.567 787.511 495.923Z"/>
	<path fill="#164073" transform="scale(0.0253906 0.0253906)" d="M787.511 495.923C788.417 497.993 788.128 500.225 788.117 502.446L788.068 512.672L788.607 538.429L788.158 538.871L788.036 526.045C771.071 546.118 749.722 564.05 726.438 576.264C718.487 580.434 710.124 583.816 701.875 587.339L701.52 587.414C700.898 579.257 701.029 571.088 701.038 562.914C701.041 559.555 701.815 553.643 700.475 550.641L701.032 550.4C726.144 541.414 750.639 529.95 771.069 512.471C776.915 507.47 782.281 501.567 787.511 495.923Z"/>
	<path fill="#2F799F" transform="scale(0.0253906 0.0253906)" d="M235.93 489.926L240.055 497.135C253.171 515.383 271.611 526.683 291.536 536.258C301.859 541.219 312.432 545.763 323.359 549.238L324.01 549.471L323.52 587.934L323.17 587.864L323.085 746.099C320.384 746.243 317.523 746.203 314.86 746.651L314.626 746.5C310.338 735.483 304.129 724.851 296.005 716.201C280.012 699.174 258.622 690.511 235.459 689.869L235.444 550.329L235.208 515.85C235.124 507.582 234.215 497.97 235.93 489.926Z"/>
	<path fill="#164073" transform="scale(0.0253906 0.0253906)" d="M240.055 497.135C253.171 515.383 271.611 526.683 291.536 536.258C301.859 541.219 312.432 545.763 323.359 549.238L324.01 549.471L323.52 587.934L323.17 587.864C313.515 584.412 303.841 579.819 294.773 575.053C281.023 567.828 267.018 559.223 256.523 547.574C249.428 539.699 242.34 530.007 240.427 519.35C239.113 512.031 239.681 504.513 240.055 497.135Z"/>
	<path fill="#F78940" transform="scale(0.0253906 0.0253906)" d="M791.006 342.645C798.66 345.25 805.558 354.158 811.175 359.823L836.164 384.819C840.963 389.597 845.769 395.095 851.269 399.031L852.118 399.94L852.07 400.392C851.943 401.723 851.952 402.474 852.424 403.75C856.803 415.584 860.632 429.061 862.589 441.497L863.596 446.495L864.616 451.929L865.65 457.882L869.433 488.586C870.246 499.035 869.973 509.613 869.974 520.088C869.974 526.242 870.43 532.893 869.555 538.96C867.99 549.798 868.198 560.954 865.893 571.75L864.889 578.25L863.41 586.25L862.396 591.25L860.391 600.25C859.392 604.101 858.607 607.949 857.413 611.75L857.092 613.03C854.685 621.881 852.144 632.024 848.319 640.334L841.624 656.803L830.109 681.106C826.896 687.602 823.685 694.333 819.89 700.5C815.748 707.232 811.809 714.337 806.84 720.5L802.478 725.701L802.422 476.812L802.433 404.25C802.45 392.178 803.556 379.458 802.119 367.494C800.931 357.6 796.92 350.494 791.006 342.645Z"/>
	<path fill="#EE5E58" transform="scale(0.0253906 0.0253906)" d="M322.867 344.767C324.655 345.14 326.829 344.874 328.665 344.842L340.089 344.728L387.806 344.651L517.143 344.619L590.515 344.733C589.296 345.156 588.687 345.18 587.833 346.202C585.902 348.512 570.609 362.438 570.536 363.729L630.66 363.971L643.267 363.894C645.876 363.82 648.755 363.466 651.338 363.741C652.802 363.896 653.854 364.124 654.897 365.25C657.674 368.247 659.19 373.227 658.71 377.235C658.36 380.153 656.115 382.751 653.737 384.359C651.493 385.876 558.595 385.079 547.578 384.98L546.677 385.292L361.373 561.275L324.01 549.471L323.359 549.238C312.432 545.763 301.859 541.219 291.536 536.258C271.611 526.683 253.171 515.383 240.055 497.135L235.93 489.926L235.745 489.031C234.072 481.103 234.998 471.657 234.996 463.547L235.003 418.113C242.174 419.305 249.423 420.243 256.695 419.148C278.143 415.92 293.289 404.032 305.975 387.079C314.324 374.602 320.053 360.118 321.199 345.076L322.867 344.767Z"/>
	<path fill="#F16F3E" transform="scale(0.0253906 0.0253906)" d="M549.928 363.808L569.899 363.538L556.253 376.634L555.583 373.25C554.801 369.316 552.563 366.671 549.928 363.808Z"/>
	<path fill="#F16F3E" transform="scale(0.0253906 0.0253906)" d="M321.199 345.076L322.867 344.767L323.359 549.238C312.432 545.763 301.859 541.219 291.536 536.258C271.611 526.683 253.171 515.383 240.055 497.135L235.93 489.926L235.745 489.031C234.072 481.103 234.998 471.657 234.996 463.547L235.003 418.113C242.174 419.305 249.423 420.243 256.695 419.148C278.143 415.92 293.289 404.032 305.975 387.079C314.324 374.602 320.053 360.118 321.199 345.076Z"/>
	<path fill="#DD363A" transform="scale(0.0253906 0.0253906)" d="M592.272 344.49L648.195 344.642L700.854 344.991L701.78 352.514C700.38 355.656 701.307 359.785 700.664 363.158C702.022 363 703.221 362.996 704.587 363.073L704.77 363.316C706.998 371.436 711.042 378.603 715.988 385.383L717.385 386.646C732.237 405.129 751.978 419.025 776.126 421.644L788.095 422.132L788.042 470.507C788.052 478.588 789.431 488.058 787.511 495.923C782.281 501.567 776.915 507.47 771.069 512.471C750.639 529.95 726.144 541.414 701.032 550.4L700.475 550.641C666.936 562.81 632.228 568.941 597.032 573.924L578.052 576.119C572.509 576.573 565.689 576.408 560.439 578.053L560.154 578.132L560.055 561.158C560.016 555.352 560.848 550.209 556.555 545.593C555.14 544.072 553.153 542.327 551.076 541.82C543.065 539.862 532.4 541.01 524.171 541.139L488.542 541.302C481.287 541.158 473.865 542.331 468.51 547.79C460.891 555.557 462.186 567.529 462.418 577.495L461.938 577.391C427.984 575.927 394.217 569.8 361.373 561.275L546.677 385.292L547.578 384.98C558.595 385.079 651.493 385.876 653.737 384.359C656.115 382.751 658.36 380.153 658.71 377.235C659.19 373.227 657.674 368.247 654.897 365.25C653.854 364.124 652.802 363.896 651.338 363.741C648.755 363.466 645.876 363.82 643.267 363.894L630.66 363.971L570.536 363.729C570.609 362.438 585.902 348.512 587.833 346.202C588.687 345.18 589.296 345.156 590.515 344.733L592.272 344.49Z"/>
	<path fill="#EE5E58" transform="scale(0.0253906 0.0253906)" d="M704.587 363.073L704.77 363.316C706.998 371.436 711.042 378.603 715.988 385.383L717.385 386.646C732.237 405.129 751.978 419.025 776.126 421.644L788.095 422.132L788.042 470.507C788.052 478.588 789.431 488.058 787.511 495.923C782.281 501.567 776.915 507.47 771.069 512.471C750.639 529.95 726.144 541.414 701.032 550.4L701.011 386.108C696.571 386 690.027 387.262 686.017 385.268L685.5 384.992C683.764 384.084 682.658 382.939 681.748 381.185C680.208 378.215 679.592 375.235 680.819 372.028C681.889 369.229 684.669 365.849 687.437 364.598L687.978 364.372C691.436 362.87 696.599 363.322 700.36 363.42L700.664 363.158C702.022 363 703.221 362.996 704.587 363.073Z"/>
	<path fill="#F16F3E" transform="scale(0.0253906 0.0253906)" d="M704.587 363.073L704.77 363.316C706.998 371.436 711.042 378.603 715.988 385.383L715.085 385.541C710.449 386.443 705.367 386.038 700.64 386.03L700.408 364.025L700.36 363.42L700.664 363.158C702.022 363 703.221 362.996 704.587 363.073Z"/>
	<path fill="#1C507C" transform="scale(0.0253906 0.0253906)" d="M462.418 577.495C462.186 567.529 460.891 555.557 468.51 547.79C473.865 542.331 481.287 541.158 488.542 541.302L524.171 541.139C532.4 541.01 543.065 539.862 551.076 541.82C553.153 542.327 555.14 544.072 556.555 545.593C560.848 550.209 560.016 555.352 560.055 561.158L560.154 578.132L560.439 578.053C565.689 576.408 572.509 576.573 578.052 576.119L597.032 573.924C632.228 568.941 666.936 562.81 700.475 550.641C701.815 553.643 701.041 559.555 701.038 562.914C701.029 571.088 700.898 579.257 701.52 587.414L701.875 587.339L701.964 701.27L701.956 732.655C701.954 736.963 701.429 742.033 702.128 746.259C704.252 746.424 706.446 746.477 708.516 747.002L703.842 767.322C703.838 769.024 703.913 770.772 703.693 772.459L318.9 772.454L319.137 772.11C319.051 763.349 317.195 755.066 314.86 746.651C317.523 746.203 320.384 746.243 323.085 746.099L323.17 587.864L323.52 587.934L324.01 549.471L361.373 561.275C394.217 569.8 427.984 575.927 461.938 577.391L462.418 577.495Z"/>
	<path fill="#0A255A" transform="scale(0.0253906 0.0253906)" d="M462.551 635.515L560.096 635.527C560.58 645.624 561.028 657.683 553.574 665.54C550.867 668.393 546.826 670.421 543.006 671.25C535.639 672.848 527.015 671.868 519.5 671.834L490.753 671.983C482.588 672.008 475.267 671.65 469.109 665.449C461.286 657.572 462.462 645.726 462.551 635.515Z"/>
	<path fill="#0A255A" transform="scale(0.0253906 0.0253906)" d="M324.01 549.471L361.373 561.275C394.217 569.8 427.984 575.927 461.938 577.391L462.225 618.966C449.59 618.385 436.98 616.483 424.5 614.477C389.996 608.931 356.169 600.482 323.52 587.934L324.01 549.471Z"/>
	<path fill="#0A255A" transform="scale(0.0253906 0.0253906)" d="M700.475 550.641C701.815 553.643 701.041 559.555 701.038 562.914C701.029 571.088 700.898 579.257 701.52 587.414C694.106 591.02 685.866 593.457 678.043 596.058C639.802 608.774 600.732 615.255 560.67 619.012L560.482 578.676L560.439 578.053C565.689 576.408 572.509 576.573 578.052 576.119L597.032 573.924C632.228 568.941 666.936 562.81 700.475 550.641Z"/>
	<path fill="#FCEAC5" transform="scale(0.0253906 0.0253906)" d="M462.418 577.495C462.186 567.529 460.891 555.557 468.51 547.79C473.865 542.331 481.287 541.158 488.542 541.302L524.171 541.139C532.4 541.01 543.065 539.862 551.076 541.82C553.153 542.327 555.14 544.072 556.555 545.593C560.848 550.209 560.016 555.352 560.055 561.158L560.154 578.132L560.096 635.527L462.551 635.515L462.418 577.495Z"/>
	<path fill="#3EA89C" transform="scale(0.0253906 0.0253906)" d="M532.407 557.875C538.18 561.52 542.895 566.342 544.466 573.25C545.508 577.83 545.056 583.165 545.063 587.859C545.072 593.357 545.587 599.622 544.373 604.989C543.89 607.122 542.93 609.064 541.73 610.882C538.582 615.651 534.362 618.728 529 620.571L528.309 620.819C524.677 622.028 520.054 621.491 516.242 621.508C507.364 621.549 495.749 622.781 487.702 618.507C483.177 616.104 479.101 611.68 477.565 606.75C475.97 601.63 476.474 595.75 476.543 590.435C480.078 594.107 480.949 600.173 484.522 604.196C489.56 609.869 497.234 612.099 504.598 612.25C512.428 612.411 519.274 611.559 525.146 605.867C527.554 603.532 529.941 600.802 531.2 597.656C533.794 591.175 533.059 583.34 532.756 576.534L532.407 557.875Z"/>
	<path fill="#04DB87" transform="scale(0.0253906 0.0253906)" d="M476.543 590.435C476.207 583.605 475.303 575.749 477.697 569.226C479.771 563.578 484.13 559.327 489.609 556.963C495.564 554.392 504.848 555.967 511.25 555.972C516.328 555.975 521.484 555.388 526.537 556.043C528.533 556.302 530.531 557.168 532.407 557.875L532.756 576.534C533.059 583.34 533.794 591.175 531.2 597.656C529.941 600.802 527.554 603.532 525.146 605.867C519.274 611.559 512.428 612.411 504.598 612.25C497.234 612.099 489.56 609.869 484.522 604.196C480.949 600.173 480.078 594.107 476.543 590.435Z"/>
	<path fill="#FCEAC5" transform="scale(0.0253906 0.0253906)" d="M499.392 568.75C500.431 568.514 501.434 568.347 502.495 568.596C503.903 568.927 505.186 570.225 505.894 571.441C506.833 573.053 507.015 574.969 506.423 576.75C505.013 580.988 500.045 585.1 496.243 587.25C495.42 587.454 494.595 587.458 493.75 587.512C491.558 586.637 489.927 585.67 488.894 583.448C488.197 581.948 488.163 580.04 488.789 578.513C490.483 574.379 495.498 570.549 499.392 568.75Z"/>
	<path fill="#164073" transform="scale(0.0253906 0.0253906)" d="M319.137 772.11C320.505 772.06 322.027 772.196 323.25 771.512C324.375 763.508 323.458 754.299 323.418 746.161L701.639 746.055L701.566 759.322C701.643 761.238 701.569 763.402 702.362 765.175C702.44 763.862 702.729 762.114 702.251 760.88C701.109 757.94 701.984 750.734 702.136 747.463L702.678 747.285C704.592 746.807 705.681 747.199 707.25 748.245C706.776 749.206 706.913 748.742 706.755 749.75C706.628 750.556 706.541 750.982 706.112 751.703L705.755 752.25C705.842 752.969 705.981 753.567 705.718 754.267C705.501 754.845 705.221 755.378 705.125 756.003C704.993 756.862 705.17 757.307 704.681 758.094C704.088 759.045 703.835 761.822 704 763L703.255 763.75C703.157 765.029 703.506 766.106 703.842 767.322C703.838 769.024 703.913 770.772 703.693 772.459L318.9 772.454L319.137 772.11Z"/>
	<path fill="#F16F3E" transform="scale(0.0253906 0.0253906)" d="M802.478 725.701L806.84 720.5C811.809 714.337 815.748 707.232 819.89 700.5C823.685 694.333 826.896 687.602 830.109 681.106L841.624 656.803L848.319 640.334C852.144 632.024 854.685 621.881 857.092 613.03L857.413 611.75C858.607 607.949 859.392 604.101 860.391 600.25L862.396 591.25L863.41 586.25L864.889 578.25L865.893 571.75C868.198 560.954 867.99 549.798 869.555 538.96C870.43 532.893 869.974 526.242 869.974 520.088C869.973 509.613 870.246 499.035 869.433 488.586L865.65 457.882L864.616 451.929L863.596 446.495L862.589 441.497C860.632 429.061 856.803 415.584 852.424 403.75C851.952 402.474 851.943 401.723 852.07 400.392L852.118 399.94L959.616 504.815C960.563 503.577 959.947 500.566 960.095 498.926C961.021 507.042 960.541 515.692 960.155 523.843L958.329 552.579C955.797 580.368 951.116 608.584 943.658 635.505C928.29 690.98 901.318 743.603 865.465 788.657C844.855 814.557 821.567 839.563 795.5 860.066C784.27 868.899 772.382 876.75 760.496 884.662C732.279 903.443 702.262 919.807 670.524 931.812C635.204 945.172 597.952 953.071 560.497 957.284C524.942 961.283 488.508 960.455 453.068 955.683C441.299 954.099 429.664 952.463 418.108 949.683L304.587 838.122L268.714 803.136C262.742 797.217 255.548 791.21 250.931 784.161C262.147 786.296 272.336 786.507 283.681 786.451L738.494 786.059L753.294 786.451C766.008 786.617 778.557 782.653 787.659 773.558C795.89 765.333 800.923 755.34 802.231 743.757C802.89 737.915 802.507 731.587 802.478 725.701Z"/>
	<path fill="#F78940" transform="scale(0.0253906 0.0253906)" d="M283.681 786.451L738.494 786.059C735.743 790.924 727.495 795.841 722.858 799.183C689.982 822.879 652.934 841.463 613.828 852.335C520.556 878.266 416.333 868.215 331.606 820.351C319.572 813.554 307.849 805.789 296.653 797.699C291.973 794.317 286.836 791.412 283.681 786.451Z"/>
</svg>
